# xmcd
#
# Track frame offsets:
#	182
#	13447
#	24910
#	39902
#	51192
#	65447
#	76950
#	87085
#	97207
#	111762
#	127155
#	140012
#
# Disc length: 2019 seconds
#
# Revision: 0
# Processed by: cddbd v1.4PL0 Copyright (c) Steve Scherf et al.
# Submitted via: audiograbber 1.81.01
#
DISCID=a207e10c
DTITLE=The Rokes - I Grandi Successi Originali cd2
DYEAR=1900
DGENRE=pop
TTITLE0=La mia città
TTITLE1=Spegni questa luce
TTITLE2=Ma che freddo fà
TTITLE3=Non c'è pace permè (Baby, come back)
TTITLE4=Piangi con me
TTITLE5=Regency sue
TTITLE6=Ricordo quando ero bambino
TTITLE7=28 Giugno
TTITLE8=Lascia lultimo ballo per me
TTITLE9=Ripe apples (Mature)
TTITLE10=Un'anima pura
TTITLE11=Il primo sintomo
EXTD=
EXTT0=
EXTT1=
EXTT2=
EXTT3=
EXTT4=
EXTT5=
EXTT6=
EXTT7=
EXTT8=
EXTT9=
EXTT10=
EXTT11=
PLAYORDER=
